PathFileType	4	(X/Y/Z)	/Volumes/GoogleDrive/My Drive/Research/Stanford/Projects/Digital Athlete Project/Sprinting/Sprint Simulation/sprinter/subjects/JA1/experimental_data/TRC/run0900cms.trc
DataRate	CameraRate	NumFrames	NumMarkers	Units	OrigDataRate	OrigDataStartFrame	OrigNumFrames
250.000000	250.000000	5	53	mm	250.000000	243	323
Frame#	Time	C7			RSH			LSH			MAN			T7			LARM			LELB			LFOREARM			LWR			RARM			RELB			RFOREARM			RWR			RASI			LASI			SACR			P1			P2			P3			LTHLP			LTHLD			LTHAP			LTHAD			LLEPI			LPAT			LTIAP			LTIAD			LTILAT			LLMAL			LHEEL			LMFS			LMFL			LP1MT			LTOE			LP5MT			RTHLP			RTHLD			RTHAP			RTHAD			RLEPI			RPAT			RTIAP			RTIAD			RTILAT			RLMAL			RHEEL			RMFS			RMFL			RP1MT			RTOE			RP5MT			x52			x53			
		X1	Y1	Z1	X2	Y2	Z2	X3	Y3	Z3	X4	Y4	Z4	X5	Y5	Z5	X6	Y6	Z6	X7	Y7	Z7	X8	Y8	Z8	X9	Y9	Z9	X10	Y10	Z10	X11	Y11	Z11	X12	Y12	Z12	X13	Y13	Z13	X14	Y14	Z14	X15	Y15	Z15	X16	Y16	Z16	X17	Y17	Z17	X18	Y18	Z18	X19	Y19	Z19	X20	Y20	Z20	X21	Y21	Z21	X22	Y22	Z22	X23	Y23	Z23	X24	Y24	Z24	X25	Y25	Z25	X26	Y26	Z26	X27	Y27	Z27	X28	Y28	Z28	X29	Y29	Z29	X30	Y30	Z30	X31	Y31	Z31	X32	Y32	Z32	X33	Y33	Z33	X34	Y34	Z34	X35	Y35	Z35	X36	Y36	Z36	X37	Y37	Z37	X38	Y38	Z38	X39	Y39	Z39	X40	Y40	Z40	X41	Y41	Z41	X42	Y42	Z42	X43	Y43	Z43	X44	Y44	Z44	X45	Y45	Z45	X46	Y46	Z46	X47	Y47	Z47	X48	Y48	Z48	X49	Y49	Z49	X50	Y50	Z50	X51	Y51	Z51	X52	Y52	Z52	X53	Y53	Z53	
243	0.972000	3232.519775	1456.769165	242.567749	3301.791992	1460.888184	386.043945	3274.253906	1445.450317	67.780479	3367.417236	1355.375122	213.414902	3160.989502	1266.800903	273.823883	3112.745117	1391.549927	-3.171507	2971.549805	1379.506836	-18.186850	2894.336670	1251.727173	-56.603310	2804.008545	1155.885376	-76.148384	3404.156006	1312.107666	484.965637	3480.808594	1205.165527	533.257446	3547.646240	1305.413086	455.211731	3604.717529	1392.071167	387.511871	3319.661621	952.300964	361.401550	3312.747803	969.553467	148.508667	3146.591797	1036.670166	261.639984	3127.298584	1007.949646	210.411316	3129.891602	1016.950134	314.622559	3087.797852	965.943542	264.504700	3393.771973	771.394836	67.225822	3495.184570	721.285461	89.638428	3460.186279	865.851929	162.429626	3555.376465	807.154175	162.712372	3573.555420	651.461304	121.847824	3653.762451	708.489136	177.791260	3626.178223	490.348480	197.553406	3623.823242	350.171539	208.055618	3586.843506	412.590637	129.717728	3603.088135	191.842697	169.831116	3542.213379	155.113770	222.482422	3706.491455	203.989548	217.174026	3681.480713	160.623138	161.765091	3778.790527	165.558792	255.776505	3793.832520	186.171860	211.886398	3754.520264	125.044098	140.599945	3083.735840	750.370728	442.305054	3015.345947	662.021301	421.274048	3164.844482	658.295471	364.963013	3089.993408	589.254211	348.089508	2901.459961	571.463379	383.526459	2949.059082	491.847595	332.669952	2692.965576	495.088776	303.482117	2566.572754	481.142761	290.143005	2672.110596	550.916626	373.326263	2441.513428	496.886993	343.742615	2426.491699	559.233337	284.671387	2418.359131	387.781036	304.790802	2382.397705	435.409393	351.259277	2350.077393	333.638245	258.517334	2355.072021	316.416138	305.479950	2313.423828	376.166199	371.701202	3636.633789	1440.533447	349.651703	2758.099365	1107.173706	-86.082169
244	0.976000	3272.965576	1458.565430	241.776718	3343.172852	1462.250000	385.351532	3313.992188	1445.483765	67.028107	3406.946289	1355.868652	213.870132	3199.250244	1268.442139	272.729492	3151.891602	1388.628174	-3.206270	3011.039551	1374.244141	-17.915478	2935.900879	1245.002808	-55.763660	2848.037598	1147.449951	-74.888779	3438.887939	1311.121948	486.324768	3511.262451	1201.170654	535.673340	3580.458496	1298.893066	456.838440	3639.659180	1383.517578	388.159912	3357.707031	953.713562	361.719238	3349.213135	971.026367	149.547913	3182.922607	1037.398926	261.771881	3163.855713	1008.344177	210.695679	3167.312500	1016.675293	315.279449	3126.469727	964.432678	265.407349	3425.208008	768.361328	66.388008	3524.484619	714.058411	88.945404	3496.384033	859.463989	160.735626	3588.831299	798.201477	161.417419	3604.922363	641.758057	120.890602	3685.165039	700.020386	176.239227	3664.301758	481.551758	197.957367	3671.645508	341.772675	207.515625	3633.907227	401.537567	127.720146	3661.253418	182.705490	168.552460	3601.063232	143.618530	218.563660	3762.556152	201.177322	217.988998	3742.091064	155.049927	163.383347	3834.160156	168.586288	261.322845	3850.095947	189.650757	217.969833	3818.467529	122.732597	147.031418	3124.899170	748.748291	442.856903	3056.854492	660.351135	422.407074	3206.161133	657.636780	367.410767	3132.278320	586.995239	352.324646	2944.101562	569.249756	385.894623	2987.892822	486.220947	339.042694	2732.323975	504.251160	306.023285	2604.858398	500.496857	290.620850	2714.929688	562.919983	374.726898	2480.591553	526.259949	343.302948	2473.704346	589.942993	283.890839	2448.643799	419.524902	303.690674	2418.749268	471.252716	348.901947	2378.200928	372.114899	255.837646	2381.134277	355.541901	303.615173	2341.440430	417.934387	367.128296	3672.766357	1430.842651	349.752472	2803.381104	1097.868652	-84.609123
245	0.980000	3313.219238	1460.908203	241.099365	3384.350098	1463.281006	384.716400	3353.663574	1445.287720	66.372505	3445.726318	1356.337280	214.419449	3237.172363	1269.947632	271.507629	3191.252197	1385.533691	-3.417664	3050.849121	1368.327393	-18.320011	2978.366699	1237.204102	-55.287891	2893.334961	1137.307373	-73.684639	3473.043945	1309.710205	487.978973	3540.603516	1196.547363	538.188843	3613.134521	1290.980591	458.762543	3675.301025	1373.052246	389.248108	3395.840820	955.151306	361.886993	3385.625244	972.467468	150.323242	3219.413574	1037.976685	262.873962	3200.309082	1008.684875	211.552994	3204.879395	1016.547058	316.684296	3164.509766	963.665527	267.050140	3456.318115	762.985535	66.249977	3552.947021	704.702637	88.579544	3532.806641	852.890320	157.816467	3621.923828	788.750000	159.558792	3636.458496	631.649231	119.288567	3716.708740	690.872742	174.320419	3700.901123	473.143799	198.613159	3716.632812	334.318604	207.134842	3677.981201	393.158325	125.559319	3715.908691	175.326401	167.248123	3656.422852	134.126053	215.310852	3815.242432	198.560959	218.800400	3798.809570	150.339462	164.721146	3885.646484	171.116653	266.053528	3902.502197	191.891953	223.085022	3877.357666	120.842926	152.772461	3164.644775	748.366943	443.753174	3097.769531	658.920166	424.746155	3246.276855	658.090088	368.951355	3174.442627	585.753906	355.577301	2987.574951	566.635681	388.338837	3028.651367	481.103577	345.274475	2773.712158	513.593384	307.496674	2646.299561	519.564209	291.656769	2759.957031	573.004333	376.783722	2523.598877	555.374390	343.638123	2524.343994	619.661865	283.312012	2483.536621	452.288055	302.938110	2457.306885	506.818359	347.339081	2411.101318	411.438843	252.907288	2411.017090	394.210571	300.613495	2376.303467	460.658386	362.963348	3710.066650	1418.949585	350.373169	2850.117676	1086.534912	-83.034790
246	0.984000	3353.543457	1461.431152	240.360947	3424.966064	1463.812866	384.412811	3393.437744	1444.810303	65.796432	3484.537109	1356.190430	214.965042	3274.866943	1271.447144	270.233551	3230.661865	1382.317017	-3.785847	3090.912598	1361.824097	-19.031569	3021.792969	1228.585571	-55.066826	2940.165527	1125.786133	-72.483688	3506.630127	1307.925781	489.644165	3569.110107	1191.507202	540.713135	3645.824951	1281.950684	460.918152	3711.763184	1360.619995	390.603699	3433.700439	956.663025	361.963379	3421.846436	973.884583	150.670502	3255.930664	1038.630127	264.675018	3236.510498	1009.076721	214.188004	3242.475342	1016.492615	318.532196	3202.080566	963.435425	269.227753	3487.165527	755.658020	67.196091	3581.955811	694.575745	88.315514	3569.302979	845.935425	154.222778	3655.255127	778.825439	157.112137	3667.936279	621.692749	117.646332	3748.218018	681.130432	172.446487	3738.122803	466.288452	197.472748	3759.663086	327.924133	206.654358	3718.373779	386.589783	123.788406	3766.671631	169.090576	166.451721	3708.479004	125.925667	213.847626	3864.470215	195.917084	219.255966	3851.267090	145.746307	166.234253	3933.895996	172.354568	269.400970	3951.819092	192.762390	226.429184	3931.260742	118.925453	157.507401	3203.728760	748.722046	445.005371	3138.686035	657.395142	426.475067	3286.302490	658.887512	370.565125	3216.634033	585.015686	358.188019	3032.020264	562.411621	390.987396	3072.336182	476.156769	349.375671	2816.966797	523.084717	308.156158	2690.513184	538.752075	291.842163	2806.655273	582.314636	378.613220	2570.783203	583.084778	342.595032	2578.683838	648.193848	283.585266	2522.478027	484.489044	301.145081	2500.614990	541.556274	346.034515	2447.628418	450.867188	250.447998	2449.422852	433.825195	297.971680	2419.519287	503.083984	360.131256	3748.638184	1404.614624	351.281372	2898.678223	1073.538330	-81.335808
247	0.988000	3393.684570	1462.083618	239.630371	3465.305420	1463.921997	384.515289	3433.213379	1443.976562	65.327774	3523.197998	1355.896729	215.905655	3312.291748	1272.953613	269.203278	3270.273682	1378.923218	-4.172771	3131.057617	1354.922607	-20.362352	3066.347412	1219.189331	-55.094318	2988.566406	1113.173584	-71.565750	3539.783203	1305.649902	491.545166	3596.890137	1186.107666	543.260498	3678.110840	1271.719604	463.098755	3748.638916	1346.315552	392.311340	3471.670166	958.120239	361.858734	3457.937500	975.165283	150.616943	3292.520996	1039.128906	266.679352	3272.885742	1009.599915	215.650238	3279.842773	1016.508362	320.793365	3239.464355	963.220764	271.572418	3518.361572	747.926880	69.408470	3611.837646	684.457153	87.844902	3605.692383	838.241516	150.539886	3688.752441	768.466431	154.150482	3699.353516	612.423462	115.979874	3780.276855	670.919189	170.768158	3775.076172	459.996643	195.460297	3801.207764	322.743927	205.189865	3755.762451	380.127563	122.527786	3813.772461	163.670609	166.122849	3756.595947	119.206032	213.642853	3910.642090	192.907623	219.329941	3899.468506	141.261719	167.564468	3979.489014	172.341660	271.279175	3997.531494	192.425873	228.070541	3980.199219	116.166885	160.894714	3243.441895	748.415283	446.817139	3179.505127	656.052307	428.944916	3326.871826	659.370972	372.095642	3258.779541	584.199219	360.095947	3077.034668	557.490479	393.516876	3117.941162	471.213226	351.084656	2862.134277	532.690369	308.799622	2737.411377	557.286011	292.308441	2854.734375	589.884399	380.701691	2621.185791	610.120972	342.001648	2635.634033	674.948730	283.906097	2564.895020	516.011841	301.178009	2548.073730	575.049622	345.206818	2488.718994	490.543945	245.307877	2489.897217	471.725494	293.410034	2464.429443	542.925110	358.152313	3788.080566	1388.032227	352.724518	2949.034180	1059.291016	-79.937363
